# 3ds Max Wavefront OBJ Exporter v0.99 - (c)2007 guruware
# File Created: 08.01.2026 15:17:11

mtllib Track.mtl

#
# object TrackCircle
#

v  -70.4216 0.0000 -9.7634
v  -70.4216 0.0000 -20.2269
v  70.8507 0.0000 -20.2269
v  70.8507 0.0000 -9.7634
v  70.8507 0.8834 -10.1872
v  70.8507 0.8834 -19.8124
v  -70.4216 0.8834 -19.8246
v  -70.4216 0.8834 -10.1668
v  70.8507 0.4897 -9.7634
v  -70.4216 0.4897 -9.7634
v  -70.4216 0.4897 -20.2269
v  70.8507 0.4897 -20.2269
v  86.2511 0.0000 -12.8677
v  80.8046 0.0000 -3.9334
v  86.2511 0.4897 -12.8677
v  81.0168 0.8834 -4.2815
v  86.0399 0.8834 -12.5213
v  80.8046 0.4897 -3.9334
v  96.2881 0.0000 -0.8401
v  87.3088 0.0000 4.5318
v  96.2881 0.4897 -0.8401
v  87.6618 0.8834 4.3206
v  95.9386 0.8834 -0.6310
v  87.3088 0.4897 4.5318
v  98.5450 0.0000 9.8535
v  88.0821 0.0000 9.9585
v  98.5450 0.4897 9.8535
v  88.4775 0.8834 9.9545
v  98.1470 0.8834 9.8575
v  88.0821 0.4897 9.9585
v  97.9870 0.0000 19.7130
v  87.9845 0.0000 16.6415
v  97.9870 0.4897 19.7130
v  88.3868 0.8834 16.7650
v  97.5903 0.8834 19.5912
v  87.9845 0.4897 16.6415
v  87.9318 0.0000 32.0761
v  81.9491 0.0000 23.4917
v  87.9318 0.4897 32.0761
v  82.1817 0.8834 23.8255
v  87.6975 0.8834 31.7399
v  81.9491 0.4897 23.4917
v  69.7660 0.0000 38.2237
v  69.8563 0.0000 27.7606
v  69.7660 0.4897 38.2237
v  69.8528 0.8834 28.1666
v  69.7695 0.8834 37.8186
v  69.8563 0.4897 27.7606
v  -70.6036 0.0000 38.0539
v  -70.5133 0.0000 27.5908
v  -70.6036 0.4897 38.0539
v  -70.5168 0.8834 27.9907
v  -70.6001 0.8834 37.6546
v  -70.5133 0.4897 27.5908
v  -87.6158 0.0000 33.8018
v  -83.6225 0.0000 24.1303
v  -87.6158 0.4897 33.8018
v  -83.7799 0.8834 24.5117
v  -87.4595 0.8834 33.4233
v  -83.6225 0.4897 24.1303
v  -98.7699 0.0000 23.2953
v  -89.9972 0.0000 17.5923
v  -98.7699 0.4897 23.2953
v  -90.3439 0.8834 17.8178
v  -98.4245 0.8834 23.0708
v  -89.9972 0.4897 17.5923
v  -101.7959 0.0000 10.2788
v  -91.3331 0.0000 10.4004
v  -101.7959 0.4897 10.2788
v  -91.7321 0.8834 10.3957
v  -101.3941 0.8834 10.2835
v  -91.3331 0.4897 10.4004
v  -99.8416 0.0000 -1.4861
v  -90.2789 0.0000 2.7613
v  -99.8416 0.4897 -1.4861
v  -90.6496 0.8834 2.5966
v  -99.4699 0.8834 -1.3210
v  -90.2789 0.4897 2.7613
v  -89.4574 0.0000 -14.4981
v  -84.6820 0.0000 -5.1879
v  -89.4574 0.4897 -14.4981
v  -84.8742 0.8834 -5.5627
v  -89.2676 0.8834 -14.1282
v  -84.6820 0.4897 -5.1879
v  71.3260 3.0882 -22.3239
v  -70.7371 3.0727 -22.3698
v  -70.0869 3.0742 -7.6249
v  70.2908 3.0994 -7.6993
v  87.5716 3.0862 -14.5672
v  79.3778 3.0814 -2.3155
v  98.2178 3.0935 -1.7763
v  85.3353 3.0971 5.3623
v  100.7069 3.0706 9.6895
v  85.9121 3.0644 10.0964
v  99.9663 3.1147 20.4800
v  86.0189 3.1295 15.8827
v  89.1492 3.1041 33.8285
v  80.7505 3.0965 21.7168
v  70.1161 3.0757 40.3582
v  69.4925 3.0769 25.6297
v  -70.8699 3.0692 40.2070
v  -70.2330 3.0701 25.4403
v  -88.6429 3.0967 35.6809
v  -82.5456 3.1009 22.2842
v  -100.6161 3.1081 24.3569
v  -88.1068 3.1085 16.6125
v  -103.9512 3.0821 10.3476
v  -89.1701 3.0751 10.3500
v  -101.7981 3.0964 -2.3577
v  -88.2820 3.0920 3.5480
v  -90.6489 3.1111 -16.2595
v  -83.4269 3.1182 -3.4806
# 112 vertices

vn 0.1034 -0.7437 0.6605
vn -0.1074 -0.6757 -0.7293
vn 0.1660 -0.6606 -0.7322
vn -0.1667 -0.7711 0.6146
vn 0.0759 0.9549 -0.2870
vn -0.0885 0.9205 0.3805
vn 0.0553 0.9275 0.3698
vn -0.0480 0.9489 -0.3120
vn -0.2481 -0.3200 0.9144
vn 0.1459 -0.3313 0.9322
vn -0.1363 -0.3525 -0.9258
vn 0.2066 -0.3550 -0.9117
vn 0.4598 -0.6621 -0.5917
vn -0.4353 -0.7529 0.4936
vn 0.5736 -0.3548 -0.7383
vn 0.2031 0.9511 -0.2326
vn -0.2396 0.9214 0.3060
vn -0.6250 -0.3276 0.7086
vn 0.6785 -0.6567 -0.3292
vn -0.5892 -0.7690 0.2480
vn 0.8409 -0.3555 -0.4080
vn 0.2741 0.9546 -0.1168
vn -0.3560 0.9186 0.1714
vn -0.8730 -0.3209 0.3674
vn 0.7324 -0.6786 -0.0556
vn -0.6872 -0.7251 0.0437
vn 0.9334 -0.3519 -0.0708
vn 0.3286 0.9442 -0.0213
vn -0.3698 0.9287 0.0281
vn -0.9392 -0.3381 0.0597
vn 0.7134 -0.6439 0.2764
vn -0.5671 -0.7940 -0.2189
vn 0.8713 -0.3560 0.3376
vn 0.2632 0.9595 0.1008
vn -0.3831 0.9115 -0.1497
vn -0.8870 -0.3097 -0.3425
vn 0.4337 -0.6497 0.6243
vn -0.3581 -0.7684 -0.5303
vn 0.5332 -0.3560 0.7675
vn 0.1670 0.9545 0.2470
vn -0.2303 0.9149 -0.3315
vn -0.5300 -0.3211 -0.7848
vn 0.1198 -0.6722 0.7306
vn -0.1118 -0.7473 -0.6550
vn 0.1514 -0.3532 0.9232
vn 0.0519 0.9498 0.3086
vn -0.0621 0.9260 -0.3724
vn -0.1589 -0.3298 -0.9306
vn -0.0899 -0.6807 0.7270
vn 0.0874 -0.7371 -0.6701
vn -0.1149 -0.3514 0.9291
vn -0.0409 0.9473 0.3178
vn 0.0459 0.9295 -0.3659
vn 0.1219 -0.3337 -0.9348
vn -0.3626 -0.6544 0.6635
vn 0.3200 -0.7724 -0.5486
vn -0.4483 -0.3557 0.8201
vn -0.1480 0.9552 0.2562
vn 0.1921 0.9175 -0.3484
vn 0.4775 -0.3195 -0.8185
vn -0.6606 -0.6475 0.3799
vn 0.5571 -0.7787 -0.2887
vn -0.8101 -0.3560 0.4658
vn -0.2583 0.9566 0.1351
vn 0.3529 0.9136 -0.2018
vn 0.8421 -0.3167 -0.4365
vn -0.7458 -0.6657 0.0238
vn 0.6670 -0.7449 -0.0155
vn -0.9346 -0.3543 0.0298
vn -0.3143 0.9493 0.0073
vn 0.3844 0.9231 -0.0126
vn 0.9435 -0.3308 -0.0220
vn -0.6906 -0.6546 -0.3076
vn 0.5999 -0.7643 0.2364
vn -0.8537 -0.3556 -0.3803
vn -0.2798 0.9536 -0.1109
vn 0.3633 0.9176 0.1616
vn 0.8806 -0.3229 0.3469
vn -0.4278 -0.6458 -0.6324
vn 0.3660 -0.7862 0.4979
vn -0.5236 -0.3561 -0.7740
vn -0.1687 0.9580 -0.2320
vn 0.2307 0.9126 0.3375
vn 0.5625 -0.3134 0.7651
vn 0.1803 0.6506 -0.7377
vn -0.1158 0.6658 -0.7371
vn 0.0913 0.7607 0.6426
vn -0.1279 0.8102 0.5720
vn 0.4704 0.6519 -0.5948
vn -0.4087 0.7761 0.4803
vn 0.6869 0.6480 -0.3289
vn -0.5339 0.8113 0.2384
vn 0.7431 0.6667 -0.0572
vn -0.6905 0.7219 0.0460
vn 0.7149 0.6380 0.2860
vn -0.4817 0.8589 -0.1740
vn 0.4393 0.6409 0.6295
vn -0.3330 0.8031 -0.4941
vn 0.1299 0.6621 0.7381
vn -0.0971 0.7679 -0.6331
vn -0.0959 0.6718 0.7345
vn 0.0793 0.7508 -0.6558
vn -0.3741 0.6452 0.6662
vn 0.2809 0.8124 -0.5109
vn -0.6677 0.6398 0.3806
vn 0.4949 0.8265 -0.2684
vn -0.7558 0.6542 0.0269
vn 0.6499 0.7599 -0.0120
vn -0.6973 0.6451 -0.3125
vn 0.5611 0.7972 0.2228
vn -0.4392 0.6385 -0.6320
vn 0.3048 0.8393 0.4502
# 112 vertex normals

vt 0.4862 0.5198 0.0000
vt 0.4862 0.9754 0.0000
vt 0.0306 0.9754 0.0000
vt 0.0306 0.5198 0.0000
vt 0.4862 0.5383 0.0000
vt 0.4862 0.9573 0.0000
vt 0.0306 0.9578 0.0000
vt 0.0306 0.5374 0.0000
vt 0.0364 0.0210 0.0000
vt 0.5056 0.0210 0.0000
vt 0.5056 0.2811 0.0000
vt 0.0364 0.2811 0.0000
vt 0.0403 0.0249 0.0000
vt 0.5141 0.0249 0.0000
vt 0.5141 0.2875 0.0000
vt 0.0403 0.2875 0.0000
vt 0.4862 0.7723 0.0000
vt 0.4681 0.9754 0.0000
vt 0.0491 0.9754 0.0000
vt 0.0484 0.9754 0.0000
vt 0.4685 0.9754 0.0000
vt 0.0306 0.7723 0.0000
vt 0.0486 0.9754 0.0000
vt 0.0479 0.9754 0.0000
vt 0.4689 0.9754 0.0000
vt 0.0490 0.9754 0.0000
vt 0.4683 0.9754 0.0000
vt 0.0483 0.9754 0.0000
vt 0.0481 0.9754 0.0000
vt 0.4688 0.9754 0.0000
vt 0.4684 0.9754 0.0000
vt 0.0487 0.9754 0.0000
vt 0.0480 0.9754 0.0000
vt 0.4687 0.9754 0.0000
vt 0.2337 0.9754 0.0000
vt 0.2337 0.5198 0.0000
vt 0.5056 0.4902 0.0000
vt 0.0364 0.4902 0.0000
vt 0.5141 0.4987 0.0000
vt 0.0403 0.4987 0.0000
# 40 texture coords

o TrackCircle
g TrackCircle
usemtl wire_013013013
s 2
f 1/1/1 2/2/2 3/3/3 4/4/4 
s 4
f 5/5/5 6/6/6 7/7/7 8/8/8 
s 8
f 1/9/1 4/10/4 9/11/9 10/12/10 
s 32
f 3/13/3 2/14/2 11/15/11 12/16/12 
s off
f 4/4/4 3/1/3 13/1/13 14/4/14 
f 3/1/3 12/17/12 15/17/15 13/1/13 
f 6/18/6 5/19/5 16/20/16 17/21/17 
f 9/22/9 4/4/4 14/4/14 18/22/18 
f 14/4/14 13/1/13 19/1/19 20/4/20 
f 13/1/13 15/17/15 21/17/21 19/1/19 
f 17/21/17 16/20/16 22/23/22 23/21/23 
f 18/22/18 14/4/14 20/4/20 24/22/24 
f 20/4/20 19/1/19 25/1/25 26/4/26 
f 19/1/19 21/17/21 27/17/27 25/1/25 
f 23/21/23 22/23/22 28/24/28 29/25/29 
f 24/22/24 20/4/20 26/4/26 30/22/30 
f 26/4/26 25/1/25 31/1/31 32/4/32 
f 25/1/25 27/17/27 33/17/33 31/1/31 
f 29/25/29 28/24/28 34/26/34 35/18/35 
f 30/22/30 26/4/26 32/4/32 36/22/36 
f 32/4/32 31/1/31 37/1/37 38/4/38 
f 31/1/31 33/17/33 39/17/39 37/1/37 
f 35/18/35 34/26/34 40/20/40 41/27/41 
f 36/22/36 32/4/32 38/4/38 42/22/42 
f 38/4/38 37/1/37 43/1/43 44/4/44 
f 37/1/37 39/17/39 45/17/45 43/1/43 
f 41/27/41 40/20/40 46/28/46 47/21/47 
f 42/22/42 38/4/38 44/4/44 48/22/48 
f 44/4/44 43/1/43 49/1/49 50/4/50 
f 43/1/43 45/17/45 51/17/51 49/1/49 
f 47/21/47 46/28/46 52/29/52 53/30/53 
f 48/22/48 44/4/44 50/4/50 54/22/54 
f 50/4/50 49/1/49 55/1/55 56/4/56 
f 49/1/49 51/17/51 57/17/57 55/1/55 
f 53/30/53 52/29/52 58/23/58 59/31/59 
f 54/22/54 50/4/50 56/4/56 60/22/60 
f 56/4/56 55/1/55 61/1/61 62/4/62 
f 55/1/55 57/17/57 63/17/63 61/1/61 
f 59/31/59 58/23/58 64/32/64 65/27/65 
f 60/22/60 56/4/56 62/4/62 66/22/66 
f 62/4/62 61/1/61 67/1/67 68/4/68 
f 61/1/61 63/17/63 69/17/69 67/1/67 
f 65/27/65 64/32/64 70/33/70 71/34/71 
f 66/22/66 62/4/62 68/4/68 72/22/72 
f 68/4/68 67/1/67 73/1/73 74/4/74 
f 67/1/67 69/17/69 75/17/75 73/1/73 
f 71/34/71 70/33/70 76/28/76 77/21/77 
f 72/22/72 68/4/68 74/4/74 78/22/78 
f 74/4/74 73/1/73 79/1/79 80/4/80 
f 73/1/73 75/17/75 81/17/81 79/1/79 
f 77/21/77 76/28/76 82/26/82 83/18/83 
f 78/22/78 74/4/74 80/4/80 84/22/84 
f 1/1/1 80/4/80 79/1/79 2/2/2 
f 79/1/79 81/17/81 11/35/11 2/2/2 
f 84/22/84 80/4/80 1/1/1 10/36/10 
f 8/8/8 7/7/7 83/18/83 82/26/82 
f 6/6/6 85/2/85 86/3/86 7/7/7 
f 8/8/8 87/4/87 88/1/88 5/5/5 
f 9/11/9 88/37/88 87/38/87 10/12/10 
f 11/15/11 86/39/86 85/40/85 12/16/12 
f 12/17/12 85/2/85 89/2/89 15/17/15 
f 5/19/5 88/3/88 90/3/90 16/20/16 
f 17/21/17 89/2/89 85/2/85 6/18/6 
f 18/22/18 90/3/90 88/3/88 9/22/9 
f 15/17/15 89/2/89 91/2/91 21/17/21 
f 16/20/16 90/3/90 92/3/92 22/23/22 
f 23/21/23 91/2/91 89/2/89 17/21/17 
f 24/22/24 92/3/92 90/3/90 18/22/18 
f 21/17/21 91/2/91 93/2/93 27/17/27 
f 22/23/22 92/3/92 94/3/94 28/24/28 
f 29/25/29 93/2/93 91/2/91 23/21/23 
f 30/22/30 94/3/94 92/3/92 24/22/24 
f 27/17/27 93/2/93 95/2/95 33/17/33 
f 28/24/28 94/3/94 96/3/96 34/26/34 
f 35/18/35 95/2/95 93/2/93 29/25/29 
f 36/22/36 96/3/96 94/3/94 30/22/30 
f 33/17/33 95/2/95 97/2/97 39/17/39 
f 34/26/34 96/3/96 98/3/98 40/20/40 
f 41/27/41 97/2/97 95/2/95 35/18/35 
f 42/22/42 98/3/98 96/3/96 36/22/36 
f 39/17/39 97/2/97 99/2/99 45/17/45 
f 40/20/40 98/3/98 100/3/100 46/28/46 
f 47/21/47 99/2/99 97/2/97 41/27/41 
f 48/22/48 100/3/100 98/3/98 42/22/42 
f 45/17/45 99/2/99 101/2/101 51/17/51 
f 46/28/46 100/3/100 102/3/102 52/29/52 
f 53/30/53 101/2/101 99/2/99 47/21/47 
f 54/22/54 102/3/102 100/3/100 48/22/48 
f 51/17/51 101/2/101 103/2/103 57/17/57 
f 52/29/52 102/3/102 104/3/104 58/23/58 
f 59/31/59 103/2/103 101/2/101 53/30/53 
f 60/22/60 104/3/104 102/3/102 54/22/54 
f 57/17/57 103/2/103 105/2/105 63/17/63 
f 58/23/58 104/3/104 106/3/106 64/32/64 
f 65/27/65 105/2/105 103/2/103 59/31/59 
f 66/22/66 106/3/106 104/3/104 60/22/60 
f 63/17/63 105/2/105 107/2/107 69/17/69 
f 64/32/64 106/3/106 108/3/108 70/33/70 
f 71/34/71 107/2/107 105/2/105 65/27/65 
f 72/22/72 108/3/108 106/3/106 66/22/66 
f 69/17/69 107/2/107 109/2/109 75/17/75 
f 70/33/70 108/3/108 110/3/110 76/28/76 
f 77/21/77 109/2/109 107/2/107 71/34/71 
f 78/22/78 110/3/110 108/3/108 72/22/72 
f 75/17/75 109/2/109 111/2/111 81/17/81 
f 76/28/76 110/3/110 112/3/112 82/26/82 
f 83/18/83 111/2/111 109/2/109 77/21/77 
f 84/22/84 112/3/112 110/3/110 78/22/78 
f 81/17/81 111/2/111 86/3/86 11/35/11 
f 10/36/10 87/4/87 112/3/112 84/22/84 
f 7/7/7 86/3/86 111/2/111 83/18/83 
f 82/26/82 112/3/112 87/4/87 8/8/8 
# 112 polygons

#
# object GroundCircle
#

v  -103.6295 1.2907 -22.4993
v  -103.6295 1.2907 40.3032
v  101.1651 1.2907 40.3032
v  101.1651 1.2907 -22.4993
v  101.1651 -3.7480 40.3032
v  -103.6295 -3.7480 40.3032
v  -103.6295 -3.7480 -22.4993
v  101.1651 -3.7480 -22.4993
# 8 vertices

vn -0.5774 0.5774 -0.5774
vn -0.5774 0.5774 0.5774
vn 0.5774 0.5774 0.5774
vn 0.5774 0.5774 -0.5774
vn 0.5774 -0.5774 0.5774
vn -0.5774 -0.5774 0.5774
vn -0.5774 -0.5774 -0.5774
vn 0.5774 -0.5774 -0.5774
# 8 vertex normals

vt 0.0296 0.4958 0.0000
vt 0.0296 0.0220 0.0000
vt 0.5034 0.0220 0.0000
vt 0.5034 0.4958 0.0000
vt 0.0345 0.0294 0.0000
vt 0.5083 0.0294 0.0000
vt 0.5083 0.5032 0.0000
vt 0.0345 0.5032 0.0000
vt 0.5096 0.0191 0.0000
vt 0.0358 0.0191 0.0000
vt 0.0358 0.4929 0.0000
vt 0.5096 0.4929 0.0000
vt 0.5032 0.0236 0.0000
vt 0.0294 0.0236 0.0000
vt 0.0294 0.4974 0.0000
vt 0.5032 0.4974 0.0000
vt 0.5012 0.0217 0.0000
vt 0.0274 0.0217 0.0000
vt 0.0274 0.4955 0.0000
vt 0.5012 0.4955 0.0000
vt 0.5051 0.0255 0.0000
vt 0.0313 0.0255 0.0000
vt 0.0313 0.4993 0.0000
vt 0.5051 0.4993 0.0000
# 24 texture coords

o GroundCircle
g GroundCircle
usemtl wire_115115115
s 2
f 113/41/113 114/42/114 115/43/115 116/44/116 
s 4
f 117/45/117 118/46/118 119/47/119 120/48/120 
s 8
f 115/49/115 114/50/114 118/51/118 117/52/117 
s 16
f 116/53/116 115/54/115 117/55/117 120/56/120 
s 32
f 113/57/113 116/58/116 120/59/120 119/60/119 
s 64
f 114/61/114 113/62/113 119/63/119 118/64/118 
# 6 polygons

